<svg xmlns="http://www.w3.org/2000/svg" xmlns:xlink="http://www.w3.org/1999/xlink" width="375" height="846" viewBox="0 0 375 846">
  <defs>
    <filter id="Rectangle_6" x="-48.5" y="161.5" width="474" height="725" filterUnits="userSpaceOnUse">
      <feOffset dx="2" dy="-9" input="SourceAlpha"/>
      <feGaussianBlur stdDeviation="16.5" result="blur"/>
      <feFlood flood-color="#ffa071" flood-opacity="0.341"/>
      <feComposite operator="in" in2="blur"/>
      <feComposite in="SourceGraphic"/>
    </filter>
    <filter id="Rectangle_4" x="1.5" y="731.5" width="366" height="99" filterUnits="userSpaceOnUse">
      <feOffset dx="-3" dy="3" input="SourceAlpha"/>
      <feGaussianBlur stdDeviation="8.5" result="blur-2"/>
      <feFlood flood-color="#f76d28" flood-opacity="0.302"/>
      <feComposite operator="in" in2="blur-2"/>
      <feComposite in="SourceGraphic"/>
    </filter>
    <filter id="Rectangle_64" x="-6" y="303" width="381" height="190" filterUnits="userSpaceOnUse">
      <feOffset dx="-3" dy="5" input="SourceAlpha"/>
      <feGaussianBlur stdDeviation="11" result="blur-3"/>
      <feFlood flood-opacity="0.09"/>
      <feComposite operator="in" in2="blur-3"/>
      <feComposite in="SourceGraphic"/>
    </filter>
    <clipPath id="clip-iPhone_X_XS_11_Pro_9b">
      <rect width="375" height="846"/>
    </clipPath>
  </defs>
  <g id="iPhone_X_XS_11_Pro_9b" data-name="iPhone X, XS, 11 Pro – 9b" clip-path="url(#clip-iPhone_X_XS_11_Pro_9b)">
    <rect width="375" height="846" fill="#ffdccb"/>
    <path id="Path_13" data-name="Path 13" d="M482.428,34.447C646.883,262.7,650.783-27.221,508.62,284.853S315.8,220.139,103.171,315.228,24.4-9.267,24.4-9.267L433-32.583S317.973-193.8,482.428,34.447Z" transform="matrix(0.899, -0.438, 0.438, 0.899, -111.131, -41.424)" fill="#f76d28" opacity="0.2"/>
    <g id="Group_5" data-name="Group 5">
      <path id="Path_30" data-name="Path 30" d="M482.428,31.692C646.883,259.941,650.783-29.976,508.62,282.1c-63.12,138.561-73.157,142.679-110.938,116.22-46.945-32.876-124.221-116.9-253.571-81.882C-88.532,379.422,24.4-12.021,24.4-12.021L433-35.338S317.973-196.556,482.428,31.692Z" transform="matrix(0.899, -0.438, 0.438, 0.899, -109.924, -38.948)" fill="#f76d28" opacity="0.15"/>
    </g>
    <g id="Iconly_Broken_Arrow---Left" data-name="Iconly/Broken/Arrow---Left" transform="translate(87.924 73.721)">
      <g id="Arrow---Left" transform="translate(-58 -23.5)">
        <path id="Path_12" data-name="Path 12" d="M7.778,18.669a.857.857,0,0,1-.854-.742l-.007-.106V.849A.848.848,0,0,1,7.45.064.87.87,0,0,1,8.3.175L8.388.25,15.306,7.1a.84.84,0,0,1,0,1.2.872.872,0,0,1-1.13.074l-.088-.076L8.64,2.9V17.82A.855.855,0,0,1,7.778,18.669ZM1.471,8.292a.871.871,0,0,1-1.218,0A.841.841,0,0,1,.174,7.181l.077-.087L4.066,3.32a.87.87,0,0,1,1.218,0A.837.837,0,0,1,5.364,4.43l-.077.087Z" transform="translate(0 15.557) rotate(-90)" fill="#fff"/>
      </g>
    </g>
    <g transform="matrix(1, 0, 0, 1, 0, 0)" filter="url(#Rectangle_6)">
      <path id="Rectangle_6-2" data-name="Rectangle 6" d="M0,0H329a46,46,0,0,1,46,46V626a0,0,0,0,1,0,0H0a0,0,0,0,1,0,0V0A0,0,0,0,1,0,0Z" transform="translate(-1 220)" fill="#fff"/>
    </g>
    <text id="Add_Drug" data-name="Add
Drug" transform="translate(30 141)" fill="#fff" font-size="30" font-family="Montserrat-Regular, Montserrat"><tspan x="0" y="0">Add</tspan><tspan x="0" y="41">Drug</tspan></text>
    <path id="Path_7" data-name="Path 7" d="M1140.147,87.455c38.857,4.58,77.463,20.741,57.089,41.482s-13.325,16.849-31.131,29.187c-10.024,6.946-28.22,7.6-37.337-.545C1103.788,135.254,1101.29,82.875,1140.147,87.455Z" transform="translate(-851.64 -36.241) rotate(3)" fill="#f76d28" opacity="0.5"/>
    <text id="Name_of_Drug" data-name="Name of Drug" transform="translate(30 264)" font-size="14" font-family="Montserrat-Medium, Montserrat" font-weight="500" opacity="0.3"><tspan x="0" y="0">Name of Drug</tspan></text>
    <text id="Expiry_Date" data-name="Expiry Date" transform="translate(30 456)" font-size="14" font-family="Montserrat-Medium, Montserrat" font-weight="500" opacity="0.3"><tspan x="0" y="0">Expiry Date</tspan></text>
    <text id="Drug_Count" data-name="Drug Count" transform="translate(30 552)" font-size="14" font-family="Montserrat-Medium, Montserrat" font-weight="500" opacity="0.3"><tspan x="0" y="0">Drug Count</tspan></text>
    <text id="Add_Image" data-name="Add Image" transform="translate(30 648)" font-size="14" font-family="Montserrat-Medium, Montserrat" font-weight="500" opacity="0.3"><tspan x="0" y="0">Add Image</tspan></text>
    <rect id="Rectangle_7" data-name="Rectangle 7" width="315" height="48" rx="8" transform="translate(30 278)" fill="#f76d28" opacity="0.05"/>
    <rect id="Rectangle_58" data-name="Rectangle 58" width="315" height="48" rx="8" transform="translate(30 470)" fill="#f76d28" opacity="0.05"/>
    <text id="paraceta" transform="translate(50 308)" fill="#f76d28" font-size="14" font-family="Montserrat-Medium, Montserrat" font-weight="500"><tspan x="0" y="0">paraceta</tspan></text>
    <g id="Group_18" data-name="Group 18" transform="translate(0 -227)">
      <g transform="matrix(1, 0, 0, 1, 0, 227)" filter="url(#Rectangle_4)">
        <rect id="Rectangle_4-2" data-name="Rectangle 4" width="315" height="48" rx="7" transform="translate(30 754)" fill="#ffa071"/>
      </g>
      <text id="Add_Drug-2" data-name="Add Drug" transform="translate(148 1011)" fill="#fff" font-size="16" font-family="Montserrat-SemiBold, Montserrat" font-weight="600"><tspan x="0" y="0">Add Drug</tspan></text>
    </g>
    <g id="pills" transform="translate(252.291 113.971)">
      <g id="Group_43" data-name="Group 43" transform="translate(0.013 0)">
        <g id="Group_42" data-name="Group 42" transform="translate(0 0)">
          <path id="Path_50" data-name="Path 50" d="M55.349,4.81a16.161,16.161,0,0,0-22.875-.133l-.133.133L18.9,18.256a1.645,1.645,0,0,0-.631.631L4.736,32.4A16.21,16.21,0,0,0,27.71,55.274l.017-.017L41.239,41.7a1.663,1.663,0,0,0,.481-.481l13.5-13.529A16.176,16.176,0,0,0,55.349,4.81ZM25.369,52.917A12.888,12.888,0,0,1,7.093,34.74L19.775,22.058,37.969,40.285ZM52.876,25.311l-12.566,12.6L22.116,19.717,34.7,7.134A12.853,12.853,0,0,1,52.876,25.311Z" transform="translate(-0.013 0)" fill="#fff"/>
        </g>
      </g>
      <g id="Group_45" data-name="Group 45" transform="translate(31.408 11.741)">
        <g id="Group_44" data-name="Group 44">
          <path id="Path_51" data-name="Path 51" d="M197.724,71.233a1.624,1.624,0,0,0-2.341-.017L189.64,76.86a1.655,1.655,0,0,0,2.307,2.374l.017-.017,5.727-5.644A1.654,1.654,0,0,0,197.724,71.233Z" transform="translate(-189.138 -70.727)" fill="#dfffbb"/>
        </g>
      </g>
      <g id="Group_47" data-name="Group 47" transform="translate(38.793 38.726)">
        <g id="Group_46" data-name="Group 46">
          <path id="Path_52" data-name="Path 52" d="M261.121,238.066l-.017-.017A15.976,15.976,0,0,0,238.5,237.9l-.149.149a16.1,16.1,0,1,0,22.775.017Zm-24.17,11.371A12.775,12.775,0,0,1,257.5,239.295l-17.911,17.928A12.849,12.849,0,0,1,236.952,249.437Zm21.812,9.03a12.786,12.786,0,0,1-16.816,1.1l17.911-17.911A12.748,12.748,0,0,1,258.764,258.468Z" transform="translate(-233.625 -233.287)" fill="#fff"/>
        </g>
      </g>
    </g>
    <g id="pills_1_" data-name="pills (1)" transform="translate(308.124 294.467)" opacity="0.7">
      <g id="Group_49" data-name="Group 49" transform="translate(5.848 0.23)">
        <g id="Group_48" data-name="Group 48" transform="translate(0 0)">
          <path id="Path_53" data-name="Path 53" d="M122.658,1.4A4,4,0,0,0,117,1.4l-3.92,3.92,5.668,5.668,3.915-3.925A4.008,4.008,0,0,0,122.658,1.4ZM118.64,3.721l-1.784,1.758-.005.005a.516.516,0,1,1-.719-.74l1.789-1.758.005-.005a.514.514,0,1,1,.714.74Z" transform="translate(-113.075 -0.23)" fill="#f76d28"/>
        </g>
      </g>
      <g id="Group_51" data-name="Group 51" transform="translate(0 6.053)">
        <g id="Group_50" data-name="Group 50">
          <path id="Path_54" data-name="Path 54" d="M5.114,112.818l-3.946,3.951a4.015,4.015,0,0,0,5.694,5.663l3.925-3.941Z" transform="translate(0 -112.818)" fill="#f76d28"/>
        </g>
      </g>
    </g>
    <text id="Type" transform="translate(30 360)" font-size="14" font-family="Montserrat-Medium, Montserrat" font-weight="500" opacity="0.3"><tspan x="0" y="0">Type</tspan></text>
    <text id="Mass" transform="translate(192.5 360)" font-size="14" font-family="Montserrat-Medium, Montserrat" font-weight="500" opacity="0.3"><tspan x="0" y="0">Mass</tspan></text>
    <rect id="Rectangle_9" data-name="Rectangle 9" width="152.5" height="48" rx="8" transform="translate(30 374)" fill="#f76d28" opacity="0.05"/>
    <rect id="Rectangle_62" data-name="Rectangle 62" width="152.5" height="48" rx="8" transform="translate(111.25 566)" fill="#f76d28" opacity="0.05"/>
    <rect id="Rectangle_57" data-name="Rectangle 57" width="152.5" height="48" rx="8" transform="translate(192.5 374)" fill="#f76d28" opacity="0.05"/>
    <text id="Select" transform="translate(45 403)" fill="#f76d28" font-size="14" font-family="Montserrat-Medium, Montserrat" font-weight="500" opacity="0.5"><tspan x="0" y="0">Select</tspan></text>
    <text id="Select-2" data-name="Select" transform="translate(45 499)" fill="#f76d28" font-size="14" font-family="Montserrat-Medium, Montserrat" font-weight="500" opacity="0.5"><tspan x="0" y="0">Select</tspan></text>
    <text id="Select-3" data-name="Select" transform="translate(207.5 403)" fill="#f76d28" font-size="14" font-family="Montserrat-Medium, Montserrat" font-weight="500" opacity="0.5"><tspan x="0" y="0">Select</tspan></text>
    <g id="Iconly_Light_Arrow---Left-2" data-name="Iconly/Light/Arrow---Left-2" transform="translate(157.181 401.319) rotate(-90)">
      <g id="Arrow---Left-2" transform="translate(5.319 0) rotate(90)">
        <path id="Stroke-1" d="M10.638,0,5.319,5.319,0,0" fill="none" stroke="#f76d28" stroke-linecap="round" stroke-linejoin="round" stroke-width="1.5" fill-rule="evenodd"/>
      </g>
    </g>
    <g id="Iconly_Light_Arrow---Left-2-2" data-name="Iconly/Light/Arrow---Left-2" transform="translate(319.681 401.319) rotate(-90)">
      <g id="Arrow---Left-2-2" data-name="Arrow---Left-2" transform="translate(5.319 0) rotate(90)">
        <path id="Stroke-1-2" data-name="Stroke-1" d="M10.638,0,5.319,5.319,0,0" fill="none" stroke="#f76d28" stroke-linecap="round" stroke-linejoin="round" stroke-width="1.5" fill-rule="evenodd"/>
      </g>
    </g>
    <g id="Iconly_Bold_Calendar" data-name="Iconly/Bold/Calendar" transform="translate(309.369 482.41)" opacity="0.7">
      <g id="Calendar" transform="translate(3 2)">
        <path id="Path_31" data-name="Path 31" d="M12.131,0a.722.722,0,0,1,.73.737h0v.719a4.5,4.5,0,0,1,4.389,4.768h0l.01,8.08a4.537,4.537,0,0,1-4.918,4.866h0l-7.4.01a4.584,4.584,0,0,1-4.93-4.91h0L0,6.284A4.5,4.5,0,0,1,4.321,1.467h0V.749a.729.729,0,1,1,1.458,0h0v.671L11.4,1.41V.739A.716.716,0,0,1,12.131,0Zm.386,13.61h-.009a.8.8,0,0,0-.775.817.8.8,0,1,0,.785-.817Zm-7.8,0a.818.818,0,0,0-.775.825.782.782,0,1,0,.775-.825Zm3.9,0a.819.819,0,0,0-.775.825.782.782,0,1,0,.775-.825ZM4.71,10.16a.817.817,0,0,0-.775.825.781.781,0,1,0,.775-.825Zm3.9-.034a.818.818,0,0,0-.775.825.782.782,0,1,0,.775-.825Zm3.9,0a.794.794,0,0,0-.775.805h0v.011a.78.78,0,0,0,.806.766.791.791,0,0,0-.03-1.582ZM11.405,2.886l-5.624.008v.775a.729.729,0,1,1-1.458,0h0V2.933C2.477,3.118,1.455,4.2,1.458,6.282h0v.3l14.335-.019V6.225c-.041-2.061-1.075-3.142-2.93-3.3h0V3.66a.729.729,0,1,1-1.458,0h0Z" transform="translate(0 0)" fill="#f76d28"/>
      </g>
    </g>
    <g id="Rectangle_59" data-name="Rectangle 59" transform="translate(29 662)" fill="#fff" stroke="#ffa071" stroke-width="1" stroke-dasharray="4 6">
      <rect width="315" height="63" rx="8" stroke="none"/>
      <rect x="0.5" y="0.5" width="314" height="62" rx="7.5" fill="none"/>
    </g>
    <rect id="Rectangle_60" data-name="Rectangle 60" width="313" height="61" rx="8" transform="translate(30 663)" fill="#ffa071" opacity="0.05"/>
    <g id="Iconly_Bold_Image" data-name="Iconly/Bold/Image" transform="translate(217.75 682)" opacity="0.3">
      <g id="Image" transform="translate(2 2)">
        <path id="Path_56" data-name="Path 56" d="M13.617,0C16.837,0,19,2.259,19,5.621v7.758C19,16.741,16.837,19,13.616,19H5.383C2.163,19,0,16.741,0,13.379V5.621C0,2.259,2.163,0,5.383,0Zm1.048,10.023a1.493,1.493,0,0,0-2.017.542c-.2.276-.38.579-.566.883a5.438,5.438,0,0,1-1.87,2.118A2.627,2.627,0,0,1,7.2,13.138a5.245,5.245,0,0,0-.786-.465c-.638-.276-1.212.038-2.064,1.121-.447.566-.89,1.127-1.339,1.685a.733.733,0,0,0,.158,1.073,3.923,3.923,0,0,0,2.08.547h8.006a4.3,4.3,0,0,0,1.336-.2,3.513,3.513,0,0,0,2.147-2.006,3.58,3.58,0,0,0,.187-2.6,2.142,2.142,0,0,0-.487-.744A10.242,10.242,0,0,0,14.665,10.023ZM6.174,3.8A2.375,2.375,0,1,0,8.548,6.175,2.377,2.377,0,0,0,6.174,3.8Z" fill="#f76d28"/>
      </g>
    </g>
    <text id="Select_File" data-name="Select File" transform="translate(136.25 699)" fill="#f76d28" font-size="14" font-family="Montserrat-SemiBold, Montserrat" font-weight="600" opacity="0.3"><tspan x="0" y="0">Select File</tspan></text>
    <text id="_23" data-name="23" transform="translate(180 595)" fill="#f76d28" font-size="14" font-family="Montserrat-Medium, Montserrat" font-weight="500"><tspan x="0" y="0">23</tspan></text>
    <rect id="Rectangle_61" data-name="Rectangle 61" width="29" height="29" rx="8" transform="translate(316 576)" fill="#f76d28" opacity="0.1"/>
    <rect id="Rectangle_63" data-name="Rectangle 63" width="29" height="29" rx="8" transform="translate(30 576)" fill="#f76d28" opacity="0.1"/>
    <g id="Iconly_Light_Plus" data-name="Iconly/Light/Plus" transform="translate(326.427 586.431)">
      <g id="Plus" transform="translate(0 0)">
        <line id="Line_185" y2="8.139" transform="translate(4.073 0)" fill="none" stroke="#f76d28" stroke-linecap="round" stroke-linejoin="round" stroke-width="1.5"/>
        <line id="Line_186" x1="8.146" transform="translate(0 4.069)" fill="none" stroke="#f76d28" stroke-linecap="round" stroke-linejoin="round" stroke-width="1.5"/>
      </g>
    </g>
    <path id="remove" d="M120.146,256H112" transform="translate(-71.573 334.5)" fill="none" stroke="#f76d28" stroke-linecap="round" stroke-linejoin="round" stroke-width="1.5" opacity="0.5"/>
    <g id="searchpopup" transform="translate(0 9)">
      <g transform="matrix(1, 0, 0, 1, 0, -9)" filter="url(#Rectangle_64)">
        <rect id="Rectangle_64-2" data-name="Rectangle 64" width="315" height="124" rx="8" transform="translate(30 331)" fill="#fff"/>
      </g>
      <text id="Paracetamol_500mg_" data-name="Paracetamol (500mg)" transform="translate(50 351)" font-size="14" font-family="Montserrat-Medium, Montserrat" font-weight="500" opacity="0.5"><tspan x="0" y="0">Paracetamol </tspan><tspan y="0" font-family="Montserrat-SemiBold, Montserrat" font-weight="600">(500mg)</tspan></text>
      <text id="iBuprofen_250mg_" data-name="iBuprofen (250mg)" transform="translate(50 389)" font-size="14" font-family="Montserrat-Medium, Montserrat" font-weight="500" opacity="0.5"><tspan x="0" y="0">iBuprofen </tspan><tspan y="0" font-family="Montserrat-SemiBold, Montserrat" font-weight="600">(250mg)</tspan></text>
      <text id="Amlodipine_500mg_" data-name="Amlodipine (500mg)" transform="translate(50 427)" font-size="14" font-family="Montserrat-Medium, Montserrat" font-weight="500" opacity="0.5"><tspan x="0" y="0">Amlodipine </tspan><tspan y="0" font-family="Montserrat-SemiBold, Montserrat" font-weight="600">(500mg)</tspan></text>
      <line id="Line_10" data-name="Line 10" x2="315" transform="translate(30.5 365)" fill="none" stroke="#000" stroke-width="0.5" opacity="0.3"/>
      <line id="Line_11" data-name="Line 11" x2="315" transform="translate(30.5 403.319)" fill="none" stroke="#000" stroke-width="0.5" opacity="0.3"/>
    </g>
  </g>
</svg>
